<svg width="207" height="71" viewBox="0 0 207 71" fill="none" xmlns="http://www.w3.org/2000/svg">
<g clip-path="url(#clip0_703_3779)">
<path d="M48.0299 42.74H54.3941C56.7786 46.4324 60.3443 47.6551 64.2997 46.1572C67.5172 44.9394 68.7447 41.7731 68.0408 36.4951C67.9507 36.5 67.8143 36.4708 67.7778 36.5171C63.1331 42.6889 50.9112 41.3444 47.6061 32.0989C45.5723 26.4093 45.8622 20.8293 49.5643 15.7925C53.8412 9.97622 63.4375 9.45256 67.6414 14.8742C67.6901 14.9376 67.8046 14.9497 67.9946 15.0325C68.0579 14.0072 68.1188 13.0183 68.1845 11.9442H75.1333C75.1626 12.4995 75.2137 13.0183 75.2137 13.5371C75.2186 22.2882 75.2283 31.0418 75.2137 39.7929C75.2015 46.7856 70.7127 51.742 63.742 52.48C60.7998 52.7918 57.8819 52.7212 55.0761 51.6422C51.6248 50.3172 49.2184 48.001 48.2978 44.3256C48.1809 43.8629 48.1346 43.383 48.0274 42.74H48.0299ZM53.7657 25.6542C53.7657 25.9465 53.756 26.2412 53.7657 26.5335C53.9387 30.6448 56.5789 33.4823 60.4417 33.7112C64.4995 33.9524 67.4319 31.5996 68.0457 27.4152C68.2454 26.0464 68.2186 24.5728 67.941 23.2186C67.147 19.3387 63.552 17.0395 59.6989 17.775C55.9212 18.496 53.7609 21.3529 53.7657 25.6567V25.6542Z" fill="#303030"/>
<path d="M0 39.6956V2.80829C0.489557 2.74009 0.949888 2.61587 1.41022 2.62074C5.90635 2.65241 10.4074 2.5769 14.8962 2.77906C24.2197 3.19798 31.2099 10.5121 31.4656 19.8551C31.6069 25.0405 30.7106 29.8947 27.2228 33.9549C23.813 37.92 19.2462 39.5275 14.2191 39.776C9.73269 39.9976 5.22682 39.849 0.728247 39.8539C0.543141 39.8539 0.358035 39.776 0 39.6932L0 39.6956ZM7.3872 8.82181V33.4702C10.2028 33.3167 12.9087 33.4263 15.5148 32.9636C19.4459 32.267 22.186 29.79 23.1359 25.9052C23.7033 23.5889 23.7983 21.0778 23.6546 18.6812C23.3916 14.2654 20.408 10.629 16.0848 9.65722C13.3228 9.03614 10.4098 9.08729 7.3872 8.82181Z" fill="#303030"/>
<path d="M177.23 15.091V0.136353H184.281V39.7174H177.398C177.342 38.7091 177.286 37.7495 177.23 36.7314C177.074 36.7801 176.901 36.7752 176.84 36.858C172.543 42.6256 161.264 41.6976 157.262 33.6162C154.32 27.6709 155.348 19.3801 159.513 14.8913C163.861 10.2052 172.682 9.54024 176.818 14.9497C176.864 15.0082 176.984 15.0106 177.227 15.0934L177.23 15.091ZM162.903 25.8418C162.92 26.2315 162.933 26.6212 162.957 27.0109C163.188 30.7593 165.687 33.5724 169.097 33.9256C173.104 34.3396 176.124 32.3448 177.023 28.426C177.364 26.9427 177.378 25.3108 177.183 23.7934C176.64 19.6017 172.811 16.981 168.688 17.8043C165.086 18.5252 162.913 21.5429 162.901 25.8418H162.903Z" fill="#303030"/>
<path d="M130.476 2.745H153.721V8.91196H137.829V17.2515H150.886V23.5597H137.838V33.3996H153.716V39.7638H130.476V2.745Z" fill="#303030"/>
<path d="M102.076 17.5316C102.076 18.8103 102.076 19.8235 102.076 20.8342C102.076 23.8179 102.052 26.7991 102.086 29.7827C102.117 32.7614 103.221 33.838 106.178 33.8648C107.247 33.8745 108.319 33.8648 109.546 33.8648V40.0682C106.614 39.8442 103.754 39.9002 101.019 39.3522C97.5166 38.6507 95.249 35.8595 95.0664 32.2524C94.852 28.0583 94.9348 23.8495 94.8813 19.6457C94.8739 19.0246 94.8106 18.4035 94.7643 17.6192H90.3291V11.8468C91.2181 11.8468 91.9926 11.8566 92.7647 11.8468C94.7229 11.8152 95.3148 11.2355 95.3343 9.31868C95.3489 7.71605 95.3367 6.11342 95.3367 4.37683H102.037V11.8444H109.59V17.5364H102.076V17.5316Z" fill="#303030"/>
<path d="M35.5283 39.7297V11.9491H42.4187V39.7297H35.5283Z" fill="#303030"/>
<path d="M79.3037 11.9296H86.2135V39.7272H79.3037V11.9296Z" fill="#303030"/>
<path d="M126.34 17.4633H120.389V8.76326H111.655V2.89587H126.337V17.4633H126.34Z" fill="#F2284F"/>
<path d="M82.777 8.77555C80.3487 8.79504 78.371 6.88796 78.3174 4.47427C78.2639 2.04109 80.3098 -0.0121241 82.7673 5.38966e-05C85.1518 0.0122319 87.2025 2.05571 87.1758 4.38902C87.149 6.79784 85.1859 8.75607 82.777 8.77555Z" fill="#303030"/>
<path d="M38.9383 8.77551C36.4954 8.76089 34.5689 6.83189 34.5713 4.40602C34.5713 1.96554 36.493 0.0292351 38.9213 0.00975023C41.4105 -0.00729903 43.4491 2.02156 43.3906 4.45961C43.3322 6.88791 41.3691 8.79012 38.9383 8.77551Z" fill="#303030"/>
<path d="M153.434 43.1348L147.143 59.9307V70.9031H151.066L155.224 56.5939V70.9031H163.997V43.1348H153.434Z" fill="#F2284F"/>
<path d="M130.273 43.1346V70.903H139.049V56.5938L143.204 70.903H147.13V59.9306L140.839 43.1346H130.273Z" fill="#F2284F"/>
<path d="M201.732 51.8809V40.7087H207V70.2819H201.859C201.817 69.5293 201.776 68.8108 201.732 68.0509C201.615 68.0874 201.486 68.085 201.44 68.1459C198.23 72.4545 189.802 71.7628 186.811 65.7224C184.612 61.2799 185.382 55.0861 188.494 51.7323C191.744 48.2299 198.334 47.733 201.425 51.7761C201.459 51.82 201.549 51.8224 201.73 51.8833L201.732 51.8809ZM190.533 59.9135C190.545 60.2058 190.555 60.4956 190.572 60.7879C190.745 63.5889 192.613 65.6908 195.161 65.9538C198.154 66.2632 200.412 64.7726 201.084 61.845C201.337 60.7368 201.35 59.5165 201.203 58.384C200.799 55.2518 197.937 53.2935 194.856 53.9097C192.165 54.448 190.54 56.7034 190.533 59.916V59.9135Z" fill="#303030"/>
<path d="M166.306 43.2417H183.674V47.8499H171.798V54.0802H181.553V58.7931H171.805V66.1462H183.669V70.9029H166.306V43.2417Z" fill="#303030"/>
</g>
<defs>
<clipPath id="clip0_703_3779">
<rect width="207" height="70.903" fill="white"/>
</clipPath>
</defs>
</svg>
